<?xml version="1.0" standalone="no"?>
<!DOCTYPE svg PUBLIC "-//W3C//DTD SVG 20010904//EN"
 "http://www.w3.org/TR/2001/REC-SVG-20010904/DTD/svg10.dtd">
<svg version="1.0" xmlns="http://www.w3.org/2000/svg"
 width="1364.000000pt" height="1364.000000pt" viewBox="0 0 1364.000000 1364.000000"
 preserveAspectRatio="xMidYMid meet">
<metadata>
Created by potrace 1.11, written by Peter Selinger 2001-2013
</metadata>
<g transform="translate(0.000000,1364.000000) scale(0.100000,-0.100000)"
fill="#000000" stroke="none">
<path d="M1870 13634 c-142 -14 -239 -30 -342 -55 -799 -195 -1398 -864 -1510
-1685 -20 -147 -20 -10011 0 -10158 121 -887 809 -1588 1690 -1721 146 -22
10088 -22 10234 0 868 131 1552 815 1683 1683 22 146 22 10088 0 10234 -119
794 -709 1446 -1484 1643 -254 64 221 59 -5261 60 -2736 1 -4991 0 -5010 -1z
m3640 -4424 l0 -600 -1085 0 -1085 0 0 -605 0 -605 1040 0 1040 0 0 -600 0
-600 -1040 0 -1040 0 0 -610 0 -610 1083 -2 1082 -3 3 -597 2 -598 -1745 0
-1745 0 0 3015 0 3015 1745 0 1745 0 0 -600z m4170 -1815 l0 -2415 1083 -2
1082 -3 3 -597 2 -598 -1745 0 -1745 0 0 3015 0 3015 660 0 660 0 0 -2415z"/>
</g>
</svg>
